<?xml version="1.0" encoding="utf-8"?>
<!-- Generator: Adobe Illustrator 19.2.1, SVG Export Plug-In . SVG Version: 6.00 Build 0)  -->
<svg version="1.1" id="layer" xmlns="http://www.w3.org/2000/svg" xmlns:xlink="http://www.w3.org/1999/xlink" x="0px" y="0px"
	 viewBox="0 0 652 652" style="enable-background:new 0 0 652 652;" xml:space="preserve">
<style type="text/css">
	.st0{fill:#F15A22;}
	.st1{fill:#F58220;}
	.st2{fill:#0057A8;}
	.st3{fill:#EF4123;}
	.st4{fill:#414042;}
</style>
<polygon class="st0" points="86.7,333.9 130.9,358.7 132.5,339.9 120.3,326.8 102.2,323.8 "/>
<polygon class="st1" points="94.2,248.5 130.9,358.7 167.6,321.9 "/>
<polygon class="st2" points="88.2,306.8 86.7,333.9 143.1,321.9 "/>
<polygon class="st3" points="59.9,361.1 67.2,351.4 65.9,339.6 47.9,327.9 20.7,321.9 "/>
<polygon class="st0" points="20.7,321.9 65.9,339.6 90.2,252.5 "/>
<polygon class="st1" points="59.9,361.1 94.2,395.4 126.3,363.2 65.9,339.6 "/>
<g>
	<path class="st4" d="M602.2,322.7v4.7c0,6.1-5.5,10.7-12.7,10.7c-6.5,0-9.4-4-9.4-7.8v-0.2c0-3.4,1.9-7.5,11-7.5H602.2z M591.5,300
		c-6.4,0-10.9,1.7-14.5,3.5l-0.4,0.2l2,5.8l0.4-0.2c3.2-1.5,6.9-3,11.7-3c7.2,0,11.3,3.3,11.3,11h-11.7c-10.9,0-17.2,4.8-17.2,13.1
		v0.2c0,8.7,7.6,13.2,15.1,13.2c6.9,0,11.3-3.2,13.8-6.3l0,5.4h6.4v-25.6c0-5.3-1.4-9.7-4.2-12.6C601.5,301.6,597.1,300,591.5,300
		 M216.5,283.3l-6.9,4v55.6h6.9V283.3z M523.9,286h-7.1v1.9v5.5h7.1V286z M247.2,300c-5.5,0-9.9,2.3-13,7v-6.1h-6.7v42h6.7v-24
		c0-7.3,4.7-12.4,11.3-12.4c6.5,0,10.4,4.5,10.4,12v24.4h6.7v-25.9c0-5-1.4-9.2-4.1-12.2C255.8,301.7,251.9,300,247.2,300
		 M330.2,321.9v0.2c0,8.8-6,15.4-14,15.4c-7.9,0-14.1-6.8-14.1-15.5v-0.2c0-8.8,6-15.5,13.9-15.5C324,306.3,330.2,313.2,330.2,321.9
		 M316.2,300c-5.8,0-11.1,2.3-15,6.5c-3.8,4.1-5.9,9.6-5.9,15.4v0.2c0,12.2,9.1,21.7,20.8,21.7c5.8,0,11.1-2.3,15.1-6.5
		c3.8-4.1,6-9.6,6-15.4v-0.2C337.1,309.6,327.9,300,316.2,300 M352,310.1v-9.2h-6.7v42h6.7v-16.8c0-11.2,5.9-18.7,15.1-18.7h0.9
		v-7.2l-0.4,0C361.1,299.9,355.4,303.6,352,310.1 M419.9,300c-5.8,0-10.3,2.5-13.8,7.7c-2.6-5-7-7.7-12.7-7.7
		c-6.3,0-9.9,3.4-12.2,6.8v-5.9h-6.7v42h6.7V319c0-7.3,4.4-12.5,10.5-12.5c6.1,0,9.7,4.4,9.7,11.8v24.6h6.7v-24.1
		c0-3.7,1.1-6.9,3.1-9.1c1.8-2,4.4-3.2,7.3-3.2c6.2,0,9.7,4.4,9.7,12v24.4h6.7V317C434.9,306.5,429.2,300,419.9,300 M508.7,307.2
		v-6.3h-12.6v-14.6l-6.7,3.9v10.7h-7.3v6.3h7.3v24.4c0,10.5,7.2,12,11.5,12c2.7,0,5-0.6,7.3-1.8l0.2-0.1v-6.2l-0.6,0.3
		c-2,1-3.5,1.4-5.5,1.4c-4.2,0-6.2-2.1-6.2-6.4v-23.6H508.7z M564.5,331.5c-3.6,4-7.4,6-11.7,6c-7.8,0-14-6.8-14-15.5v-0.2
		c0-8.7,6-15.5,13.6-15.5c5.4,0,8.7,2.9,11.6,6.1l0.3,0.4l4.5-4.9l-0.3-0.3c-3.1-3.5-7.8-7.5-16-7.5c-5.6,0-10.8,2.3-14.7,6.5
		c-3.8,4.1-5.9,9.6-5.9,15.4v0.2c0,5.8,2.1,11.2,5.9,15.3c3.9,4.2,9.1,6.5,14.7,6.5c8.3,0,13.1-4.3,16.4-8.1l0.3-0.3l-4.3-4.3
		L564.5,331.5z M471.2,322.7v4.7c0,6.1-5.5,10.7-12.7,10.7c-6.5,0-9.4-4-9.4-7.8v-0.2c0-3.4,1.9-7.5,11-7.5H471.2z M460.5,300
		c-6.4,0-10.9,1.7-14.5,3.5l-0.4,0.2l2,5.8l0.4-0.2c3.2-1.5,6.9-3,11.7-3c7.2,0,11.3,3.3,11.3,11h-11.7c-10.9,0-17.2,4.8-17.2,13.1
		v0.2c0,8.7,7.6,13.2,15.1,13.2c6.9,0,11.3-3.2,13.9-6.3l0,5.4h6.4v-25.6c0-5.3-1.4-9.7-4.1-12.6C470.5,301.6,466.2,300,460.5,300
		 M281.6,297c0-6,1.6-8.3,6.3-8.3c1.8,0,3.3,0.3,5.6,1l0.4,0.1v-6.2l-0.1-0.1c-2-0.8-3.9-1.1-6.6-1.1c-3.6,0-6.7,1.2-8.7,3.3
		c-2.3,2.4-3.5,6.2-3.5,10.9v4.2h-7.3v6.3h7.3v35.7h6.7v-35.7h12.6v-6.3h-12.6V297z M523.7,300.9H517v4.5v37.5h6.7V300.9z
		 M611.1,300.9v0.8h1.5v4.1h0.9v-4.1h1.5v-0.8H611.1z M615.9,305.8h0.8v-3.5l1.5,2.3h0l1.5-2.3v3.5h0.9v-4.9h-0.9l-1.5,2.3l-1.5-2.3
		h-0.9V305.8z"/>
</g>
</svg>
